<?xml version="1.0" standalone="no"?>
<!DOCTYPE svg PUBLIC "-//W3C//DTD SVG 20010904//EN"
 "http://www.w3.org/TR/2001/REC-SVG-20010904/DTD/svg10.dtd">
<svg version="1.0" xmlns="http://www.w3.org/2000/svg"
 width="138.000000pt" height="138.000000pt" viewBox="0 0 138.000000 138.000000"
 preserveAspectRatio="xMidYMid meet">
<metadata>
Created by potrace 1.11, written by Peter Selinger 2001-2013
</metadata>
<g transform="translate(0.000000,138.000000) scale(0.100000,-0.100000)"
fill="#000000" stroke="none">
<path d="M570 1363 c-187 -48 -324 -216 -337 -413 -18 -282 217 -511 499 -486
37 3 90 14 118 25 l51 19 -2 -46 c-7 -146 -132 -239 -269 -202 -31 8 -59 27
-96 66 -51 52 -53 53 -86 42 -18 -6 -37 -14 -43 -18 -5 -3 -28 -12 -50 -19
-23 -7 -52 -21 -65 -31 l-25 -19 25 -46 c32 -59 105 -134 164 -169 140 -82
317 -85 458 -9 109 59 205 191 228 312 5 29 10 204 10 387 0 280 -2 334 -14
334 -8 0 -28 24 -44 53 -103 183 -316 273 -522 220z m184 -245 c23 -7 59 -30
82 -54 82 -81 82 -207 0 -288 -81 -81 -193 -86 -282 -13 -92 76 -96 216 -8
303 60 60 125 76 208 52z"/>
</g>
</svg>
