<?xml version="1.0" encoding="UTF-8"?>
<svg width="184px" height="276px" viewBox="0 0 184 276" version="1.1" xmlns="http://www.w3.org/2000/svg" xmlns:xlink="http://www.w3.org/1999/xlink">
    <title>logo</title>
    <g id="Page-1" stroke="none" stroke-width="1" fill="none" fill-rule="evenodd">
        <g id="concept-002-(colorized)-copy-5" transform="translate(-448.000000, -508.000000)" fill="#000000" fill-rule="nonzero">
            <g id="logo" transform="translate(448.000000, 508.000000)">
                <g id="Group">
                    <path d="M92,0 C127.390915,0 158.114434,19.9834996 173.502404,49.2823466 C155.166555,51.1720074 139.604679,62.4078458 131.659107,78.1451218 C125.936481,61.7565943 110.34119,50 92,50 C68.8040405,50 50,68.8040405 50,92 C50,115.195959 68.8040405,134 92,134 C105.98132,134 118.367033,127.168393 126.00115,116.661168 L126.001578,177.512607 C115.483217,181.698553 104.010374,184 92,184 C41.189803,184 0,142.810197 0,92 C0,41.189803 41.189803,0 92,0 Z M184,92 C184,127.678585 163.690315,158.613588 134.001359,173.874595 L134,102 C134,77.7765888 153.139645,58.0234812 177.121097,57.0385143 C181.555963,67.8171496 184,79.6231571 184,92 Z" id="Combined-Shape"></path>
                </g>
                <path d="M134,102 C134,77.1471863 154.147186,57 179,57 C181.761424,57 184,59.2385763 184,62 L184,184 L184,184 C184,234.810197 142.810197,276 92,276 C55.32629,276 23.6644614,254.541584 8.8852698,223.495509 C8.8852698,223.495509 8.8852698,223.495509 8.8852698,223.495509 C7.40353543,220.382887 8.7256311,216.658425 11.8382531,215.176691 C11.9515957,215.122735 12.0665402,215.072211 12.1829398,215.025212 C12.3223713,214.968878 12.4559926,214.914892 12.5838036,214.863254 C20.5767892,211.633909 32.1586754,206.954568 47.3294623,200.825231 C47.3294623,200.825231 47.3294623,200.825231 47.3294623,200.825231 C50.1783879,199.674201 53.4353727,200.878908 54.8495637,203.606784 C54.9041684,203.712114 54.9573879,203.812832 55.0092224,203.908938 C62.1032808,217.062003 76.0078498,226 92,226 C115.195959,226 134,207.195959 134,184 L134,102 Z" id="Path"></path>
            </g>
        </g>
    </g>
</svg>