<?xml version="1.0" encoding="UTF-8"?>
<svg width="1429px" height="180px" viewBox="0 0 1429 180" version="1.1" xmlns="http://www.w3.org/2000/svg" xmlns:xlink="http://www.w3.org/1999/xlink">
    <title>grahamjelinski</title>
    <g id="Page-1" stroke="none" stroke-width="1" fill="none" fill-rule="evenodd">
        <g id="concept-002-(colorized)-copy-5" transform="translate(-819.000000, -643.000000)" fill="#000000" fill-rule="nonzero">
            <path d="M867.8,822.4 C881.533333,822.4 891.9,818.766667 898.9,811.5 C905.9,804.233333 909.4,793.533333 909.4,779.4 L909.4,779.4 L909.4,692.2 C909.4,690.333333 908.833333,688.833333 907.7,687.7 C906.566667,686.566667 905.066667,686 903.2,686 C901.333333,686 899.866667,686.566667 898.8,687.7 C897.733333,688.833333 897.2,690.333333 897.2,692.2 L897.2,692.2 L897.2,705.6 C894.266667,699.066667 889.933333,694.1 884.2,690.7 C878.466667,687.3 871.533333,685.6 863.4,685.6 C854.866667,685.6 847.3,687.6 840.7,691.6 C834.1,695.6 828.966667,701.266667 825.3,708.6 C821.633333,715.933333 819.8,724.333333 819.8,733.8 C819.8,743.266667 821.633333,751.666667 825.3,759 C828.966667,766.333333 834.1,772 840.7,776 C847.3,780 854.866667,782 863.4,782 C871.666667,782 878.7,780.233333 884.5,776.7 C890.3,773.166667 894.6,768.133333 897.4,761.6 L897.4,761.6 L897.4,780.6 C897.4,790.866667 894.933333,798.6 890,803.8 C885.066667,809 877.733333,811.6 868,811.6 C860.933333,811.6 855,810.766667 850.2,809.1 C845.4,807.433333 840.733333,805.333333 836.2,802.8 C835.666667,802.533333 834.7,802.033333 833.3,801.3 C831.9,800.566667 830.8,800.2 830,800.2 C828.666667,800.2 827.566667,800.666667 826.7,801.6 C825.833333,802.533333 825.4,803.733333 825.4,805.2 C825.4,808 827.8,810.866667 832.6,813.8 C837.533333,816.733333 842.833333,818.9 848.5,820.3 C854.166667,821.7 860.6,822.4 867.8,822.4 Z M865,771.2 C854.866667,771.2 846.933333,767.9 841.2,761.3 C835.466667,754.7 832.6,745.533333 832.6,733.8 C832.6,722.066667 835.466667,712.866667 841.2,706.2 C846.933333,699.533333 854.866667,696.2 865,696.2 C875,696.2 882.866667,699.566667 888.6,706.3 C894.333333,713.033333 897.2,722.2 897.2,733.8 C897.2,745.4 894.366667,754.533333 888.7,761.2 C883.033333,767.866667 875.133333,771.2 865,771.2 Z M957.6,786 C959.466667,786 960.933333,785.466667 962,784.4 C963.066667,783.333333 963.6,781.8 963.6,779.8 L963.6,779.8 L963.6,728 C963.6,720.133333 965.9,713.266667 970.5,707.4 C975.1,701.533333 982.133333,698.133333 991.6,697.2 L991.6,697.2 L997.6,696.6 C1001.6,696.2 1003.6,694.333333 1003.6,691 C1003.6,689.133333 1003.06667,687.8 1002,687 C1000.93333,686.2 999.133333,685.866667 996.6,686 L996.6,686 L993.8,686.2 C979,687.266667 968.866667,693.533333 963.4,705 L963.4,705 L963.4,692 C963.4,690.133333 962.866667,688.666667 961.8,687.6 C960.733333,686.533333 959.333333,686 957.6,686 C955.733333,686 954.233333,686.533333 953.1,687.6 C951.966667,688.666667 951.4,690.2 951.4,692.2 L951.4,692.2 L951.4,779.8 C951.4,781.8 951.966667,783.333333 953.1,784.4 C954.233333,785.466667 955.733333,786 957.6,786 Z M1059,786.4 C1065.93333,786.4 1072.06667,784.766667 1077.4,781.5 C1082.73333,778.233333 1086.8,773.6 1089.6,767.6 L1089.6,767.6 L1089.6,779.6 C1089.6,781.466667 1090.13333,782.966667 1091.2,784.1 C1092.26667,785.233333 1093.73333,785.8 1095.6,785.8 C1097.46667,785.8 1098.93333,785.233333 1100,784.1 C1101.06667,782.966667 1101.6,781.466667 1101.6,779.6 L1101.6,779.6 L1101.6,722.6 C1101.6,710.2 1098.7,700.933333 1092.9,694.8 C1087.1,688.666667 1078.33333,685.6 1066.6,685.6 C1061,685.6 1055.33333,686.333333 1049.6,687.8 C1043.86667,689.266667 1038.66667,691.333333 1034,694 C1029.33333,696.8 1027,699.666667 1027,702.6 C1027,704.066667 1027.43333,705.3 1028.3,706.3 C1029.16667,707.3 1030.26667,707.8 1031.6,707.8 C1032.8,707.8 1034.23333,707.233333 1035.9,706.1 C1037.56667,704.966667 1038.6,704.266667 1039,704 C1047.93333,698.8 1057.33333,696.2 1067.2,696.2 C1074.93333,696.2 1080.6,698.233333 1084.2,702.3 C1087.8,706.366667 1089.6,712.8 1089.6,721.6 L1089.6,721.6 L1089.6,729 L1085.4,729 C1069.8,729 1057.66667,729.866667 1049,731.6 C1040.33333,733.333333 1034.13333,736.233333 1030.4,740.3 C1026.66667,744.366667 1024.86667,750.066667 1025,757.4 C1025,762.866667 1026.53333,767.8 1029.6,772.2 C1032.66667,776.6 1036.76667,780.066667 1041.9,782.6 C1047.03333,785.133333 1052.73333,786.4 1059,786.4 Z M1060,775.8 C1053.73333,775.8 1048.46667,773.966667 1044.2,770.3 C1039.93333,766.633333 1037.8,762 1037.8,756.4 C1037.8,751.466667 1039.2,747.7 1042,745.1 C1044.8,742.5 1049.6,740.666667 1056.4,739.6 C1063.2,738.533333 1073,738 1085.8,738 L1085.8,738 L1089.6,738 L1089.6,744.6 C1089.6,753.666667 1086.83333,761.133333 1081.3,767 C1075.76667,772.866667 1068.66667,775.8 1060,775.8 Z M1217.8,786 C1219.66667,786 1221.13333,785.433333 1222.2,784.3 C1223.26667,783.166667 1223.8,781.666667 1223.8,779.8 L1223.8,779.8 L1223.8,723.2 C1223.8,698.133333 1212.13333,685.6 1188.8,685.6 C1181.33333,685.6 1174.7,687.2 1168.9,690.4 C1163.1,693.6 1158.66667,698.2 1155.6,704.2 L1155.6,704.2 L1155.6,649.2 C1155.6,647.333333 1155.06667,645.833333 1154,644.7 C1152.93333,643.566667 1151.46667,643 1149.6,643 C1147.73333,643 1146.23333,643.566667 1145.1,644.7 C1143.96667,645.833333 1143.4,647.333333 1143.4,649.2 L1143.4,649.2 L1143.4,779.8 C1143.4,781.666667 1143.96667,783.166667 1145.1,784.3 C1146.23333,785.433333 1147.73333,786 1149.6,786 C1151.46667,786 1152.93333,785.433333 1154,784.3 C1155.06667,783.166667 1155.6,781.666667 1155.6,779.8 L1155.6,779.8 L1155.6,728.8 C1155.6,718.933333 1158.5,711.066667 1164.3,705.2 C1170.1,699.333333 1177.8,696.4 1187.4,696.4 C1195.8,696.4 1201.93333,698.6 1205.8,703 C1209.66667,707.4 1211.6,714.4 1211.6,724 L1211.6,724 L1211.6,779.8 C1211.6,781.666667 1212.16667,783.166667 1213.3,784.3 C1214.43333,785.433333 1215.93333,786 1217.8,786 Z M1296.4,786.4 C1303.33333,786.4 1309.46667,784.766667 1314.8,781.5 C1320.13333,778.233333 1324.2,773.6 1327,767.6 L1327,767.6 L1327,779.6 C1327,781.466667 1327.53333,782.966667 1328.6,784.1 C1329.66667,785.233333 1331.13333,785.8 1333,785.8 C1334.86667,785.8 1336.33333,785.233333 1337.4,784.1 C1338.46667,782.966667 1339,781.466667 1339,779.6 L1339,779.6 L1339,722.6 C1339,710.2 1336.1,700.933333 1330.3,694.8 C1324.5,688.666667 1315.73333,685.6 1304,685.6 C1298.4,685.6 1292.73333,686.333333 1287,687.8 C1281.26667,689.266667 1276.06667,691.333333 1271.4,694 C1266.73333,696.8 1264.4,699.666667 1264.4,702.6 C1264.4,704.066667 1264.83333,705.3 1265.7,706.3 C1266.56667,707.3 1267.66667,707.8 1269,707.8 C1270.2,707.8 1271.63333,707.233333 1273.3,706.1 C1274.96667,704.966667 1276,704.266667 1276.4,704 C1285.33333,698.8 1294.73333,696.2 1304.6,696.2 C1312.33333,696.2 1318,698.233333 1321.6,702.3 C1325.2,706.366667 1327,712.8 1327,721.6 L1327,721.6 L1327,729 L1322.8,729 C1307.2,729 1295.06667,729.866667 1286.4,731.6 C1277.73333,733.333333 1271.53333,736.233333 1267.8,740.3 C1264.06667,744.366667 1262.26667,750.066667 1262.4,757.4 C1262.4,762.866667 1263.93333,767.8 1267,772.2 C1270.06667,776.6 1274.16667,780.066667 1279.3,782.6 C1284.43333,785.133333 1290.13333,786.4 1296.4,786.4 Z M1297.4,775.8 C1291.13333,775.8 1285.86667,773.966667 1281.6,770.3 C1277.33333,766.633333 1275.2,762 1275.2,756.4 C1275.2,751.466667 1276.6,747.7 1279.4,745.1 C1282.2,742.5 1287,740.666667 1293.8,739.6 C1300.6,738.533333 1310.4,738 1323.2,738 L1323.2,738 L1327,738 L1327,744.6 C1327,753.666667 1324.23333,761.133333 1318.7,767 C1313.16667,772.866667 1306.06667,775.8 1297.4,775.8 Z M1511.8,786 C1513.66667,786 1515.13333,785.433333 1516.2,784.3 C1517.26667,783.166667 1517.8,781.666667 1517.8,779.8 L1517.8,779.8 L1517.8,723.2 C1517.8,698.133333 1507.06667,685.6 1485.6,685.6 C1478.13333,685.6 1471.53333,687.3 1465.8,690.7 C1460.06667,694.1 1455.8,698.8 1453,704.8 C1448.46667,692 1438.53333,685.6 1423.2,685.6 C1416.26667,685.6 1410.16667,687.166667 1404.9,690.3 C1399.63333,693.433333 1395.6,698 1392.8,704 L1392.8,704 L1392.8,692 C1392.8,690.133333 1392.3,688.666667 1391.3,687.6 C1390.3,686.533333 1388.86667,686 1387,686 C1385.13333,686 1383.63333,686.533333 1382.5,687.6 C1381.36667,688.666667 1380.8,690.2 1380.8,692.2 L1380.8,692.2 L1380.8,779.8 C1380.8,781.666667 1381.36667,783.166667 1382.5,784.3 C1383.63333,785.433333 1385.13333,786 1387,786 C1388.86667,786 1390.33333,785.433333 1391.4,784.3 C1392.46667,783.166667 1393,781.666667 1393,779.8 L1393,779.8 L1393,728.8 C1393,718.933333 1395.56667,711.066667 1400.7,705.2 C1405.83333,699.333333 1412.73333,696.4 1421.4,696.4 C1429,696.4 1434.53333,698.566667 1438,702.9 C1441.46667,707.233333 1443.2,714.266667 1443.2,724 L1443.2,724 L1443.2,779.8 C1443.2,781.666667 1443.76667,783.166667 1444.9,784.3 C1446.03333,785.433333 1447.53333,786 1449.4,786 C1451.26667,786 1452.73333,785.433333 1453.8,784.3 C1454.86667,783.166667 1455.4,781.666667 1455.4,779.8 L1455.4,779.8 L1455.4,728.8 C1455.4,718.933333 1457.96667,711.066667 1463.1,705.2 C1468.23333,699.333333 1475.13333,696.4 1483.8,696.4 C1491.4,696.4 1496.93333,698.566667 1500.4,702.9 C1503.86667,707.233333 1505.6,714.266667 1505.6,724 L1505.6,724 L1505.6,779.8 C1505.6,781.666667 1506.16667,783.166667 1507.3,784.3 C1508.43333,785.433333 1509.93333,786 1511.8,786 Z M1626,663.4 C1628.66667,663.4 1630.83333,662.6 1632.5,661 C1634.16667,659.4 1635,657.333333 1635,654.8 C1635,652.133333 1634.16667,650 1632.5,648.4 C1630.83333,646.8 1628.66667,646 1626,646 C1623.33333,646 1621.16667,646.8 1619.5,648.4 C1617.83333,650 1617,652.133333 1617,654.8 C1617,657.333333 1617.83333,659.4 1619.5,661 C1621.16667,662.6 1623.33333,663.4 1626,663.4 Z M1589,816.6 C1589,820.2 1591.6,821.8 1596.8,821.4 L1596.8,821.4 L1602.2,821 C1612.46667,820.333333 1620,817.3 1624.8,811.9 C1629.6,806.5 1632,798.133333 1632,786.8 L1632,786.8 L1632,692.2 C1632,690.2 1631.46667,688.666667 1630.4,687.6 C1629.33333,686.533333 1627.86667,686 1626,686 C1624.13333,686 1622.63333,686.533333 1621.5,687.6 C1620.36667,688.666667 1619.8,690.2 1619.8,692.2 L1619.8,692.2 L1619.8,787.4 C1619.8,795.666667 1618.2,801.566667 1615,805.1 C1611.8,808.633333 1606.86667,810.6 1600.2,811 L1600.2,811 L1594.8,811.4 C1590.93333,811.8 1589,813.533333 1589,816.6 Z M1715.8,786.4 C1726.46667,786.4 1736.6,783.533333 1746.2,777.8 C1750.73333,775 1753,772.133333 1753,769.2 C1753,767.866667 1752.56667,766.7 1751.7,765.7 C1750.83333,764.7 1749.8,764.2 1748.6,764.2 C1747.4,764.2 1745.33333,765.2 1742.4,767.2 C1738,769.733333 1733.86667,771.766667 1730,773.3 C1726.13333,774.833333 1721.33333,775.6 1715.6,775.6 C1704.66667,775.6 1696.2,772.4 1690.2,766 C1684.2,759.6 1681,750.266667 1680.6,738 L1680.6,738 L1747.2,738 C1749.6,738 1751.33333,737.433333 1752.4,736.3 C1753.46667,735.166667 1754,733.4 1754,731 C1754,716.866667 1750.36667,705.766667 1743.1,697.7 C1735.83333,689.633333 1725.93333,685.6 1713.4,685.6 C1704.46667,685.6 1696.56667,687.7 1689.7,691.9 C1682.83333,696.1 1677.5,702.033333 1673.7,709.7 C1669.9,717.366667 1668,726.2 1668,736.2 C1668,751.8 1672.26667,764.066667 1680.8,773 C1689.33333,781.933333 1701,786.4 1715.8,786.4 Z M1742.8,729 L1681,729 C1682.06667,718.466667 1685.4,710.266667 1691,704.4 C1696.6,698.533333 1704.06667,695.6 1713.4,695.6 C1722.6,695.6 1729.73333,698.5 1734.8,704.3 C1739.86667,710.1 1742.53333,718.333333 1742.8,729 L1742.8,729 Z M1795.6,786 C1797.33333,786 1798.76667,785.466667 1799.9,784.4 C1801.03333,783.333333 1801.6,781.8 1801.6,779.8 L1801.6,779.8 L1801.6,649.2 C1801.6,647.2 1801.03333,645.666667 1799.9,644.6 C1798.76667,643.533333 1797.33333,643 1795.6,643 C1793.73333,643 1792.23333,643.533333 1791.1,644.6 C1789.96667,645.666667 1789.4,647.2 1789.4,649.2 L1789.4,649.2 L1789.4,779.8 C1789.4,781.8 1789.96667,783.333333 1791.1,784.4 C1792.23333,785.466667 1793.73333,786 1795.6,786 Z M1850,663.4 C1852.66667,663.4 1854.83333,662.6 1856.5,661 C1858.16667,659.4 1859,657.333333 1859,654.8 C1859,652.133333 1858.16667,650 1856.5,648.4 C1854.83333,646.8 1852.66667,646 1850,646 C1847.33333,646 1845.16667,646.8 1843.5,648.4 C1841.83333,650 1841,652.133333 1841,654.8 C1841,657.333333 1841.83333,659.4 1843.5,661 C1845.16667,662.6 1847.33333,663.4 1850,663.4 Z M1850,786 C1851.86667,786 1853.33333,785.466667 1854.4,784.4 C1855.46667,783.333333 1856,781.8 1856,779.8 L1856,779.8 L1856,692.2 C1856,690.2 1855.46667,688.666667 1854.4,687.6 C1853.33333,686.533333 1851.86667,686 1850,686 C1848.13333,686 1846.63333,686.533333 1845.5,687.6 C1844.36667,688.666667 1843.8,690.2 1843.8,692.2 L1843.8,692.2 L1843.8,779.8 C1843.8,781.8 1844.36667,783.333333 1845.5,784.4 C1846.63333,785.466667 1848.13333,786 1850,786 Z M1972.6,786 C1974.46667,786 1975.93333,785.433333 1977,784.3 C1978.06667,783.166667 1978.6,781.666667 1978.6,779.8 L1978.6,779.8 L1978.6,723.2 C1978.6,698.133333 1966.93333,685.6 1943.6,685.6 C1936,685.6 1929.3,687.233333 1923.5,690.5 C1917.7,693.766667 1913.26667,698.466667 1910.2,704.6 L1910.2,704.6 L1910.2,692 C1910.2,690.133333 1909.66667,688.666667 1908.6,687.6 C1907.53333,686.533333 1906.13333,686 1904.4,686 C1902.53333,686 1901.03333,686.566667 1899.9,687.7 C1898.76667,688.833333 1898.2,690.333333 1898.2,692.2 L1898.2,692.2 L1898.2,779.8 C1898.2,781.666667 1898.76667,783.166667 1899.9,784.3 C1901.03333,785.433333 1902.53333,786 1904.4,786 C1906.26667,786 1907.73333,785.433333 1908.8,784.3 C1909.86667,783.166667 1910.4,781.666667 1910.4,779.8 L1910.4,779.8 L1910.4,728.8 C1910.4,718.933333 1913.3,711.066667 1919.1,705.2 C1924.9,699.333333 1932.6,696.4 1942.2,696.4 C1950.6,696.4 1956.73333,698.6 1960.6,703 C1964.46667,707.4 1966.4,714.4 1966.4,724 L1966.4,724 L1966.4,779.8 C1966.4,781.666667 1966.96667,783.166667 1968.1,784.3 C1969.23333,785.433333 1970.73333,786 1972.6,786 Z M2051.8,786.4 C2063.13333,786.4 2072.23333,783.9 2079.1,778.9 C2085.96667,773.9 2089.4,767.333333 2089.4,759.2 C2089.4,754 2088.33333,749.733333 2086.2,746.4 C2084.06667,743.066667 2080.53333,740.2 2075.6,737.8 C2070.66667,735.4 2063.6,733.133333 2054.4,731 C2048,729.533333 2043.1,728.033333 2039.7,726.5 C2036.3,724.966667 2033.9,723.2 2032.5,721.2 C2031.1,719.2 2030.4,716.666667 2030.4,713.6 C2030.4,708.266667 2032.46667,704.033333 2036.6,700.9 C2040.73333,697.766667 2046.26667,696.2 2053.2,696.2 C2058.66667,696.2 2063.16667,696.966667 2066.7,698.5 C2070.23333,700.033333 2073.8,702.066667 2077.4,704.6 C2080.2,706.733333 2082.26667,707.8 2083.6,707.8 C2084.8,707.8 2085.83333,707.3 2086.7,706.3 C2087.56667,705.3 2088,704.133333 2088,702.8 C2088,699.733333 2085.66667,696.6 2081,693.4 C2077.53333,690.866667 2073.43333,688.933333 2068.7,687.6 C2063.96667,686.266667 2059,685.6 2053.8,685.6 C2043.13333,685.6 2034.46667,688.233333 2027.8,693.5 C2021.13333,698.766667 2017.8,705.666667 2017.8,714.2 C2017.8,721.266667 2020.3,726.9 2025.3,731.1 C2030.3,735.3 2038.73333,738.733333 2050.6,741.4 C2057.53333,742.866667 2062.86667,744.366667 2066.6,745.9 C2070.33333,747.433333 2073,749.233333 2074.6,751.3 C2076.2,753.366667 2077,756 2077,759.2 C2077,764.533333 2074.8,768.633333 2070.4,771.5 C2066,774.366667 2059.86667,775.8 2052,775.8 C2045.86667,775.8 2040.76667,775 2036.7,773.4 C2032.63333,771.8 2028.66667,769.733333 2024.8,767.2 C2021.86667,765.2 2019.8,764.2 2018.6,764.2 C2017.4,764.2 2016.36667,764.666667 2015.5,765.6 C2014.63333,766.533333 2014.2,767.666667 2014.2,769 C2014.2,770.6 2014.7,772.033333 2015.7,773.3 C2016.7,774.566667 2018.46667,776.066667 2021,777.8 C2025.13333,780.466667 2029.9,782.566667 2035.3,784.1 C2040.7,785.633333 2046.2,786.4 2051.8,786.4 Z M2196.8,786 C2198.26667,786 2199.53333,785.433333 2200.6,784.3 C2201.66667,783.166667 2202.2,781.866667 2202.2,780.4 C2202.2,778.666667 2201.33333,777 2199.6,775.4 L2199.6,775.4 L2152.4,735 L2195.6,696.8 C2197.2,695.6 2198,694 2198,692 C2198,690.4 2197.43333,689.033333 2196.3,687.9 C2195.16667,686.766667 2193.8,686.2 2192.2,686.2 C2190.86667,686.2 2189.46667,686.8 2188,688 L2188,688 L2138.2,732.8 L2138.2,649.2 C2138.2,647.2 2137.63333,645.666667 2136.5,644.6 C2135.36667,643.533333 2133.93333,643 2132.2,643 C2130.33333,643 2128.83333,643.533333 2127.7,644.6 C2126.56667,645.666667 2126,647.2 2126,649.2 L2126,649.2 L2126,779.8 C2126,781.8 2126.56667,783.333333 2127.7,784.4 C2128.83333,785.466667 2130.33333,786 2132.2,786 C2133.93333,786 2135.36667,785.466667 2136.5,784.4 C2137.63333,783.333333 2138.2,781.8 2138.2,779.8 L2138.2,779.8 L2138.2,737.8 L2192.6,784.2 C2194.06667,785.4 2195.46667,786 2196.8,786 Z M2239,663.4 C2241.66667,663.4 2243.83333,662.6 2245.5,661 C2247.16667,659.4 2248,657.333333 2248,654.8 C2248,652.133333 2247.16667,650 2245.5,648.4 C2243.83333,646.8 2241.66667,646 2239,646 C2236.33333,646 2234.16667,646.8 2232.5,648.4 C2230.83333,650 2230,652.133333 2230,654.8 C2230,657.333333 2230.83333,659.4 2232.5,661 C2234.16667,662.6 2236.33333,663.4 2239,663.4 Z M2239,786 C2240.86667,786 2242.33333,785.466667 2243.4,784.4 C2244.46667,783.333333 2245,781.8 2245,779.8 L2245,779.8 L2245,692.2 C2245,690.2 2244.46667,688.666667 2243.4,687.6 C2242.33333,686.533333 2240.86667,686 2239,686 C2237.13333,686 2235.63333,686.533333 2234.5,687.6 C2233.36667,688.666667 2232.8,690.2 2232.8,692.2 L2232.8,692.2 L2232.8,779.8 C2232.8,781.8 2233.36667,783.333333 2234.5,784.4 C2235.63333,785.466667 2237.13333,786 2239,786 Z" id="grahamjelinski"></path>
        </g>
    </g>
</svg>