<?xml version="1.0" encoding="UTF-8"?>
<svg width="1429px" height="180px" viewBox="0 0 1429 180" version="1.1" xmlns="http://www.w3.org/2000/svg" xmlns:xlink="http://www.w3.org/1999/xlink">
    <title>grahamjelinski</title>
    <g id="Page-1" stroke="none" stroke-width="1" fill="none" fill-rule="evenodd">
        <g id="concept-002-(colorized)-copy-5" transform="translate(-822.000000, -378.000000)" fill="#FFFFFF" fill-rule="nonzero">
            <path d="M870.8,557.4 C884.533333,557.4 894.9,553.766667 901.9,546.5 C908.9,539.233333 912.4,528.533333 912.4,514.4 L912.4,514.4 L912.4,427.2 C912.4,425.333333 911.833333,423.833333 910.7,422.7 C909.566667,421.566667 908.066667,421 906.2,421 C904.333333,421 902.866667,421.566667 901.8,422.7 C900.733333,423.833333 900.2,425.333333 900.2,427.2 L900.2,427.2 L900.2,440.6 C897.266667,434.066667 892.933333,429.1 887.2,425.7 C881.466667,422.3 874.533333,420.6 866.4,420.6 C857.866667,420.6 850.3,422.6 843.7,426.6 C837.1,430.6 831.966667,436.266667 828.3,443.6 C824.633333,450.933333 822.8,459.333333 822.8,468.8 C822.8,478.266667 824.633333,486.666667 828.3,494 C831.966667,501.333333 837.1,507 843.7,511 C850.3,515 857.866667,517 866.4,517 C874.666667,517 881.7,515.233333 887.5,511.7 C893.3,508.166667 897.6,503.133333 900.4,496.6 L900.4,496.6 L900.4,515.6 C900.4,525.866667 897.933333,533.6 893,538.8 C888.066667,544 880.733333,546.6 871,546.6 C863.933333,546.6 858,545.766667 853.2,544.1 C848.4,542.433333 843.733333,540.333333 839.2,537.8 C838.666667,537.533333 837.7,537.033333 836.3,536.3 C834.9,535.566667 833.8,535.2 833,535.2 C831.666667,535.2 830.566667,535.666667 829.7,536.6 C828.833333,537.533333 828.4,538.733333 828.4,540.2 C828.4,543 830.8,545.866667 835.6,548.8 C840.533333,551.733333 845.833333,553.9 851.5,555.3 C857.166667,556.7 863.6,557.4 870.8,557.4 Z M868,506.2 C857.866667,506.2 849.933333,502.9 844.2,496.3 C838.466667,489.7 835.6,480.533333 835.6,468.8 C835.6,457.066667 838.466667,447.866667 844.2,441.2 C849.933333,434.533333 857.866667,431.2 868,431.2 C878,431.2 885.866667,434.566667 891.6,441.3 C897.333333,448.033333 900.2,457.2 900.2,468.8 C900.2,480.4 897.366667,489.533333 891.7,496.2 C886.033333,502.866667 878.133333,506.2 868,506.2 Z M960.6,521 C962.466667,521 963.933333,520.466667 965,519.4 C966.066667,518.333333 966.6,516.8 966.6,514.8 L966.6,514.8 L966.6,463 C966.6,455.133333 968.9,448.266667 973.5,442.4 C978.1,436.533333 985.133333,433.133333 994.6,432.2 L994.6,432.2 L1000.6,431.6 C1004.6,431.2 1006.6,429.333333 1006.6,426 C1006.6,424.133333 1006.06667,422.8 1005,422 C1003.93333,421.2 1002.13333,420.866667 999.6,421 L999.6,421 L996.8,421.2 C982,422.266667 971.866667,428.533333 966.4,440 L966.4,440 L966.4,427 C966.4,425.133333 965.866667,423.666667 964.8,422.6 C963.733333,421.533333 962.333333,421 960.6,421 C958.733333,421 957.233333,421.533333 956.1,422.6 C954.966667,423.666667 954.4,425.2 954.4,427.2 L954.4,427.2 L954.4,514.8 C954.4,516.8 954.966667,518.333333 956.1,519.4 C957.233333,520.466667 958.733333,521 960.6,521 Z M1062,521.4 C1068.93333,521.4 1075.06667,519.766667 1080.4,516.5 C1085.73333,513.233333 1089.8,508.6 1092.6,502.6 L1092.6,502.6 L1092.6,514.6 C1092.6,516.466667 1093.13333,517.966667 1094.2,519.1 C1095.26667,520.233333 1096.73333,520.8 1098.6,520.8 C1100.46667,520.8 1101.93333,520.233333 1103,519.1 C1104.06667,517.966667 1104.6,516.466667 1104.6,514.6 L1104.6,514.6 L1104.6,457.6 C1104.6,445.2 1101.7,435.933333 1095.9,429.8 C1090.1,423.666667 1081.33333,420.6 1069.6,420.6 C1064,420.6 1058.33333,421.333333 1052.6,422.8 C1046.86667,424.266667 1041.66667,426.333333 1037,429 C1032.33333,431.8 1030,434.666667 1030,437.6 C1030,439.066667 1030.43333,440.3 1031.3,441.3 C1032.16667,442.3 1033.26667,442.8 1034.6,442.8 C1035.8,442.8 1037.23333,442.233333 1038.9,441.1 C1040.56667,439.966667 1041.6,439.266667 1042,439 C1050.93333,433.8 1060.33333,431.2 1070.2,431.2 C1077.93333,431.2 1083.6,433.233333 1087.2,437.3 C1090.8,441.366667 1092.6,447.8 1092.6,456.6 L1092.6,456.6 L1092.6,464 L1088.4,464 C1072.8,464 1060.66667,464.866667 1052,466.6 C1043.33333,468.333333 1037.13333,471.233333 1033.4,475.3 C1029.66667,479.366667 1027.86667,485.066667 1028,492.4 C1028,497.866667 1029.53333,502.8 1032.6,507.2 C1035.66667,511.6 1039.76667,515.066667 1044.9,517.6 C1050.03333,520.133333 1055.73333,521.4 1062,521.4 Z M1063,510.8 C1056.73333,510.8 1051.46667,508.966667 1047.2,505.3 C1042.93333,501.633333 1040.8,497 1040.8,491.4 C1040.8,486.466667 1042.2,482.7 1045,480.1 C1047.8,477.5 1052.6,475.666667 1059.4,474.6 C1066.2,473.533333 1076,473 1088.8,473 L1088.8,473 L1092.6,473 L1092.6,479.6 C1092.6,488.666667 1089.83333,496.133333 1084.3,502 C1078.76667,507.866667 1071.66667,510.8 1063,510.8 Z M1220.8,521 C1222.66667,521 1224.13333,520.433333 1225.2,519.3 C1226.26667,518.166667 1226.8,516.666667 1226.8,514.8 L1226.8,514.8 L1226.8,458.2 C1226.8,433.133333 1215.13333,420.6 1191.8,420.6 C1184.33333,420.6 1177.7,422.2 1171.9,425.4 C1166.1,428.6 1161.66667,433.2 1158.6,439.2 L1158.6,439.2 L1158.6,384.2 C1158.6,382.333333 1158.06667,380.833333 1157,379.7 C1155.93333,378.566667 1154.46667,378 1152.6,378 C1150.73333,378 1149.23333,378.566667 1148.1,379.7 C1146.96667,380.833333 1146.4,382.333333 1146.4,384.2 L1146.4,384.2 L1146.4,514.8 C1146.4,516.666667 1146.96667,518.166667 1148.1,519.3 C1149.23333,520.433333 1150.73333,521 1152.6,521 C1154.46667,521 1155.93333,520.433333 1157,519.3 C1158.06667,518.166667 1158.6,516.666667 1158.6,514.8 L1158.6,514.8 L1158.6,463.8 C1158.6,453.933333 1161.5,446.066667 1167.3,440.2 C1173.1,434.333333 1180.8,431.4 1190.4,431.4 C1198.8,431.4 1204.93333,433.6 1208.8,438 C1212.66667,442.4 1214.6,449.4 1214.6,459 L1214.6,459 L1214.6,514.8 C1214.6,516.666667 1215.16667,518.166667 1216.3,519.3 C1217.43333,520.433333 1218.93333,521 1220.8,521 Z M1299.4,521.4 C1306.33333,521.4 1312.46667,519.766667 1317.8,516.5 C1323.13333,513.233333 1327.2,508.6 1330,502.6 L1330,502.6 L1330,514.6 C1330,516.466667 1330.53333,517.966667 1331.6,519.1 C1332.66667,520.233333 1334.13333,520.8 1336,520.8 C1337.86667,520.8 1339.33333,520.233333 1340.4,519.1 C1341.46667,517.966667 1342,516.466667 1342,514.6 L1342,514.6 L1342,457.6 C1342,445.2 1339.1,435.933333 1333.3,429.8 C1327.5,423.666667 1318.73333,420.6 1307,420.6 C1301.4,420.6 1295.73333,421.333333 1290,422.8 C1284.26667,424.266667 1279.06667,426.333333 1274.4,429 C1269.73333,431.8 1267.4,434.666667 1267.4,437.6 C1267.4,439.066667 1267.83333,440.3 1268.7,441.3 C1269.56667,442.3 1270.66667,442.8 1272,442.8 C1273.2,442.8 1274.63333,442.233333 1276.3,441.1 C1277.96667,439.966667 1279,439.266667 1279.4,439 C1288.33333,433.8 1297.73333,431.2 1307.6,431.2 C1315.33333,431.2 1321,433.233333 1324.6,437.3 C1328.2,441.366667 1330,447.8 1330,456.6 L1330,456.6 L1330,464 L1325.8,464 C1310.2,464 1298.06667,464.866667 1289.4,466.6 C1280.73333,468.333333 1274.53333,471.233333 1270.8,475.3 C1267.06667,479.366667 1265.26667,485.066667 1265.4,492.4 C1265.4,497.866667 1266.93333,502.8 1270,507.2 C1273.06667,511.6 1277.16667,515.066667 1282.3,517.6 C1287.43333,520.133333 1293.13333,521.4 1299.4,521.4 Z M1300.4,510.8 C1294.13333,510.8 1288.86667,508.966667 1284.6,505.3 C1280.33333,501.633333 1278.2,497 1278.2,491.4 C1278.2,486.466667 1279.6,482.7 1282.4,480.1 C1285.2,477.5 1290,475.666667 1296.8,474.6 C1303.6,473.533333 1313.4,473 1326.2,473 L1326.2,473 L1330,473 L1330,479.6 C1330,488.666667 1327.23333,496.133333 1321.7,502 C1316.16667,507.866667 1309.06667,510.8 1300.4,510.8 Z M1514.8,521 C1516.66667,521 1518.13333,520.433333 1519.2,519.3 C1520.26667,518.166667 1520.8,516.666667 1520.8,514.8 L1520.8,514.8 L1520.8,458.2 C1520.8,433.133333 1510.06667,420.6 1488.6,420.6 C1481.13333,420.6 1474.53333,422.3 1468.8,425.7 C1463.06667,429.1 1458.8,433.8 1456,439.8 C1451.46667,427 1441.53333,420.6 1426.2,420.6 C1419.26667,420.6 1413.16667,422.166667 1407.9,425.3 C1402.63333,428.433333 1398.6,433 1395.8,439 L1395.8,439 L1395.8,427 C1395.8,425.133333 1395.3,423.666667 1394.3,422.6 C1393.3,421.533333 1391.86667,421 1390,421 C1388.13333,421 1386.63333,421.533333 1385.5,422.6 C1384.36667,423.666667 1383.8,425.2 1383.8,427.2 L1383.8,427.2 L1383.8,514.8 C1383.8,516.666667 1384.36667,518.166667 1385.5,519.3 C1386.63333,520.433333 1388.13333,521 1390,521 C1391.86667,521 1393.33333,520.433333 1394.4,519.3 C1395.46667,518.166667 1396,516.666667 1396,514.8 L1396,514.8 L1396,463.8 C1396,453.933333 1398.56667,446.066667 1403.7,440.2 C1408.83333,434.333333 1415.73333,431.4 1424.4,431.4 C1432,431.4 1437.53333,433.566667 1441,437.9 C1444.46667,442.233333 1446.2,449.266667 1446.2,459 L1446.2,459 L1446.2,514.8 C1446.2,516.666667 1446.76667,518.166667 1447.9,519.3 C1449.03333,520.433333 1450.53333,521 1452.4,521 C1454.26667,521 1455.73333,520.433333 1456.8,519.3 C1457.86667,518.166667 1458.4,516.666667 1458.4,514.8 L1458.4,514.8 L1458.4,463.8 C1458.4,453.933333 1460.96667,446.066667 1466.1,440.2 C1471.23333,434.333333 1478.13333,431.4 1486.8,431.4 C1494.4,431.4 1499.93333,433.566667 1503.4,437.9 C1506.86667,442.233333 1508.6,449.266667 1508.6,459 L1508.6,459 L1508.6,514.8 C1508.6,516.666667 1509.16667,518.166667 1510.3,519.3 C1511.43333,520.433333 1512.93333,521 1514.8,521 Z M1629,398.4 C1631.66667,398.4 1633.83333,397.6 1635.5,396 C1637.16667,394.4 1638,392.333333 1638,389.8 C1638,387.133333 1637.16667,385 1635.5,383.4 C1633.83333,381.8 1631.66667,381 1629,381 C1626.33333,381 1624.16667,381.8 1622.5,383.4 C1620.83333,385 1620,387.133333 1620,389.8 C1620,392.333333 1620.83333,394.4 1622.5,396 C1624.16667,397.6 1626.33333,398.4 1629,398.4 Z M1592,551.6 C1592,555.2 1594.6,556.8 1599.8,556.4 L1599.8,556.4 L1605.2,556 C1615.46667,555.333333 1623,552.3 1627.8,546.9 C1632.6,541.5 1635,533.133333 1635,521.8 L1635,521.8 L1635,427.2 C1635,425.2 1634.46667,423.666667 1633.4,422.6 C1632.33333,421.533333 1630.86667,421 1629,421 C1627.13333,421 1625.63333,421.533333 1624.5,422.6 C1623.36667,423.666667 1622.8,425.2 1622.8,427.2 L1622.8,427.2 L1622.8,522.4 C1622.8,530.666667 1621.2,536.566667 1618,540.1 C1614.8,543.633333 1609.86667,545.6 1603.2,546 L1603.2,546 L1597.8,546.4 C1593.93333,546.8 1592,548.533333 1592,551.6 Z M1718.8,521.4 C1729.46667,521.4 1739.6,518.533333 1749.2,512.8 C1753.73333,510 1756,507.133333 1756,504.2 C1756,502.866667 1755.56667,501.7 1754.7,500.7 C1753.83333,499.7 1752.8,499.2 1751.6,499.2 C1750.4,499.2 1748.33333,500.2 1745.4,502.2 C1741,504.733333 1736.86667,506.766667 1733,508.3 C1729.13333,509.833333 1724.33333,510.6 1718.6,510.6 C1707.66667,510.6 1699.2,507.4 1693.2,501 C1687.2,494.6 1684,485.266667 1683.6,473 L1683.6,473 L1750.2,473 C1752.6,473 1754.33333,472.433333 1755.4,471.3 C1756.46667,470.166667 1757,468.4 1757,466 C1757,451.866667 1753.36667,440.766667 1746.1,432.7 C1738.83333,424.633333 1728.93333,420.6 1716.4,420.6 C1707.46667,420.6 1699.56667,422.7 1692.7,426.9 C1685.83333,431.1 1680.5,437.033333 1676.7,444.7 C1672.9,452.366667 1671,461.2 1671,471.2 C1671,486.8 1675.26667,499.066667 1683.8,508 C1692.33333,516.933333 1704,521.4 1718.8,521.4 Z M1745.8,464 L1684,464 C1685.06667,453.466667 1688.4,445.266667 1694,439.4 C1699.6,433.533333 1707.06667,430.6 1716.4,430.6 C1725.6,430.6 1732.73333,433.5 1737.8,439.3 C1742.86667,445.1 1745.53333,453.333333 1745.8,464 L1745.8,464 Z M1798.6,521 C1800.33333,521 1801.76667,520.466667 1802.9,519.4 C1804.03333,518.333333 1804.6,516.8 1804.6,514.8 L1804.6,514.8 L1804.6,384.2 C1804.6,382.2 1804.03333,380.666667 1802.9,379.6 C1801.76667,378.533333 1800.33333,378 1798.6,378 C1796.73333,378 1795.23333,378.533333 1794.1,379.6 C1792.96667,380.666667 1792.4,382.2 1792.4,384.2 L1792.4,384.2 L1792.4,514.8 C1792.4,516.8 1792.96667,518.333333 1794.1,519.4 C1795.23333,520.466667 1796.73333,521 1798.6,521 Z M1853,398.4 C1855.66667,398.4 1857.83333,397.6 1859.5,396 C1861.16667,394.4 1862,392.333333 1862,389.8 C1862,387.133333 1861.16667,385 1859.5,383.4 C1857.83333,381.8 1855.66667,381 1853,381 C1850.33333,381 1848.16667,381.8 1846.5,383.4 C1844.83333,385 1844,387.133333 1844,389.8 C1844,392.333333 1844.83333,394.4 1846.5,396 C1848.16667,397.6 1850.33333,398.4 1853,398.4 Z M1853,521 C1854.86667,521 1856.33333,520.466667 1857.4,519.4 C1858.46667,518.333333 1859,516.8 1859,514.8 L1859,514.8 L1859,427.2 C1859,425.2 1858.46667,423.666667 1857.4,422.6 C1856.33333,421.533333 1854.86667,421 1853,421 C1851.13333,421 1849.63333,421.533333 1848.5,422.6 C1847.36667,423.666667 1846.8,425.2 1846.8,427.2 L1846.8,427.2 L1846.8,514.8 C1846.8,516.8 1847.36667,518.333333 1848.5,519.4 C1849.63333,520.466667 1851.13333,521 1853,521 Z M1975.6,521 C1977.46667,521 1978.93333,520.433333 1980,519.3 C1981.06667,518.166667 1981.6,516.666667 1981.6,514.8 L1981.6,514.8 L1981.6,458.2 C1981.6,433.133333 1969.93333,420.6 1946.6,420.6 C1939,420.6 1932.3,422.233333 1926.5,425.5 C1920.7,428.766667 1916.26667,433.466667 1913.2,439.6 L1913.2,439.6 L1913.2,427 C1913.2,425.133333 1912.66667,423.666667 1911.6,422.6 C1910.53333,421.533333 1909.13333,421 1907.4,421 C1905.53333,421 1904.03333,421.566667 1902.9,422.7 C1901.76667,423.833333 1901.2,425.333333 1901.2,427.2 L1901.2,427.2 L1901.2,514.8 C1901.2,516.666667 1901.76667,518.166667 1902.9,519.3 C1904.03333,520.433333 1905.53333,521 1907.4,521 C1909.26667,521 1910.73333,520.433333 1911.8,519.3 C1912.86667,518.166667 1913.4,516.666667 1913.4,514.8 L1913.4,514.8 L1913.4,463.8 C1913.4,453.933333 1916.3,446.066667 1922.1,440.2 C1927.9,434.333333 1935.6,431.4 1945.2,431.4 C1953.6,431.4 1959.73333,433.6 1963.6,438 C1967.46667,442.4 1969.4,449.4 1969.4,459 L1969.4,459 L1969.4,514.8 C1969.4,516.666667 1969.96667,518.166667 1971.1,519.3 C1972.23333,520.433333 1973.73333,521 1975.6,521 Z M2054.8,521.4 C2066.13333,521.4 2075.23333,518.9 2082.1,513.9 C2088.96667,508.9 2092.4,502.333333 2092.4,494.2 C2092.4,489 2091.33333,484.733333 2089.2,481.4 C2087.06667,478.066667 2083.53333,475.2 2078.6,472.8 C2073.66667,470.4 2066.6,468.133333 2057.4,466 C2051,464.533333 2046.1,463.033333 2042.7,461.5 C2039.3,459.966667 2036.9,458.2 2035.5,456.2 C2034.1,454.2 2033.4,451.666667 2033.4,448.6 C2033.4,443.266667 2035.46667,439.033333 2039.6,435.9 C2043.73333,432.766667 2049.26667,431.2 2056.2,431.2 C2061.66667,431.2 2066.16667,431.966667 2069.7,433.5 C2073.23333,435.033333 2076.8,437.066667 2080.4,439.6 C2083.2,441.733333 2085.26667,442.8 2086.6,442.8 C2087.8,442.8 2088.83333,442.3 2089.7,441.3 C2090.56667,440.3 2091,439.133333 2091,437.8 C2091,434.733333 2088.66667,431.6 2084,428.4 C2080.53333,425.866667 2076.43333,423.933333 2071.7,422.6 C2066.96667,421.266667 2062,420.6 2056.8,420.6 C2046.13333,420.6 2037.46667,423.233333 2030.8,428.5 C2024.13333,433.766667 2020.8,440.666667 2020.8,449.2 C2020.8,456.266667 2023.3,461.9 2028.3,466.1 C2033.3,470.3 2041.73333,473.733333 2053.6,476.4 C2060.53333,477.866667 2065.86667,479.366667 2069.6,480.9 C2073.33333,482.433333 2076,484.233333 2077.6,486.3 C2079.2,488.366667 2080,491 2080,494.2 C2080,499.533333 2077.8,503.633333 2073.4,506.5 C2069,509.366667 2062.86667,510.8 2055,510.8 C2048.86667,510.8 2043.76667,510 2039.7,508.4 C2035.63333,506.8 2031.66667,504.733333 2027.8,502.2 C2024.86667,500.2 2022.8,499.2 2021.6,499.2 C2020.4,499.2 2019.36667,499.666667 2018.5,500.6 C2017.63333,501.533333 2017.2,502.666667 2017.2,504 C2017.2,505.6 2017.7,507.033333 2018.7,508.3 C2019.7,509.566667 2021.46667,511.066667 2024,512.8 C2028.13333,515.466667 2032.9,517.566667 2038.3,519.1 C2043.7,520.633333 2049.2,521.4 2054.8,521.4 Z M2199.8,521 C2201.26667,521 2202.53333,520.433333 2203.6,519.3 C2204.66667,518.166667 2205.2,516.866667 2205.2,515.4 C2205.2,513.666667 2204.33333,512 2202.6,510.4 L2202.6,510.4 L2155.4,470 L2198.6,431.8 C2200.2,430.6 2201,429 2201,427 C2201,425.4 2200.43333,424.033333 2199.3,422.9 C2198.16667,421.766667 2196.8,421.2 2195.2,421.2 C2193.86667,421.2 2192.46667,421.8 2191,423 L2191,423 L2141.2,467.8 L2141.2,384.2 C2141.2,382.2 2140.63333,380.666667 2139.5,379.6 C2138.36667,378.533333 2136.93333,378 2135.2,378 C2133.33333,378 2131.83333,378.533333 2130.7,379.6 C2129.56667,380.666667 2129,382.2 2129,384.2 L2129,384.2 L2129,514.8 C2129,516.8 2129.56667,518.333333 2130.7,519.4 C2131.83333,520.466667 2133.33333,521 2135.2,521 C2136.93333,521 2138.36667,520.466667 2139.5,519.4 C2140.63333,518.333333 2141.2,516.8 2141.2,514.8 L2141.2,514.8 L2141.2,472.8 L2195.6,519.2 C2197.06667,520.4 2198.46667,521 2199.8,521 Z M2242,398.4 C2244.66667,398.4 2246.83333,397.6 2248.5,396 C2250.16667,394.4 2251,392.333333 2251,389.8 C2251,387.133333 2250.16667,385 2248.5,383.4 C2246.83333,381.8 2244.66667,381 2242,381 C2239.33333,381 2237.16667,381.8 2235.5,383.4 C2233.83333,385 2233,387.133333 2233,389.8 C2233,392.333333 2233.83333,394.4 2235.5,396 C2237.16667,397.6 2239.33333,398.4 2242,398.4 Z M2242,521 C2243.86667,521 2245.33333,520.466667 2246.4,519.4 C2247.46667,518.333333 2248,516.8 2248,514.8 L2248,514.8 L2248,427.2 C2248,425.2 2247.46667,423.666667 2246.4,422.6 C2245.33333,421.533333 2243.86667,421 2242,421 C2240.13333,421 2238.63333,421.533333 2237.5,422.6 C2236.36667,423.666667 2235.8,425.2 2235.8,427.2 L2235.8,427.2 L2235.8,514.8 C2235.8,516.8 2236.36667,518.333333 2237.5,519.4 C2238.63333,520.466667 2240.13333,521 2242,521 Z" id="grahamjelinski"></path>
        </g>
    </g>
</svg>