<svg height='100px' width='100px'  fill="#FFFFFF" xmlns:x="http://ns.adobe.com/Extensibility/1.0/" xmlns:i="http://ns.adobe.com/AdobeIllustrator/10.0/" xmlns:graph="http://ns.adobe.com/Graphs/1.0/" xmlns="http://www.w3.org/2000/svg" xmlns:xlink="http://www.w3.org/1999/xlink" version="1.1" x="0px" y="0px" viewBox="0 0 100 100" style="enable-background:new 0 0 100 100;" xml:space="preserve"><g><g i:extraneous="self"><path d="M45,4.6L15.7,33.9c-2.7,2.7-2.7,7.2,0,9.9c2.7,2.7,7.2,2.7,9.9,0L43,26.5v64c0,3.9,3.1,7,7,7s7-3.1,7-7v-64l17.3,17.3    c2.7,2.7,7.2,2.7,9.9,0c1.4-1.4,2.1-3.2,2.1-5s-0.7-3.6-2.1-5L55,4.6c-1.3-1.3-3.1-2.1-5-2.1C48.1,2.5,46.3,3.2,45,4.6z"></path></g></g></svg>